<?xml version="1.0" standalone="no"?>
<!DOCTYPE svg PUBLIC "-//W3C//DTD SVG 20010904//EN"
 "http://www.w3.org/TR/2001/REC-SVG-20010904/DTD/svg10.dtd">
<svg version="1.0" xmlns="http://www.w3.org/2000/svg"
 width="270.000000pt" height="270.000000pt" viewBox="0 0 270.000000 270.000000"
 preserveAspectRatio="xMidYMid meet">
<metadata>
Created by potrace 1.11, written by Peter Selinger 2001-2013
</metadata>
<g transform="translate(0.000000,270.000000) scale(0.100000,-0.100000)"
fill="#000000" stroke="none">
<path d="M1192 2688 c-607 -65 -1103 -556 -1181 -1168 -11 -89 -7 -298 8 -391
44 -268 194 -554 394 -745 198 -190 455 -317 727 -360 85 -13 348 -13 420 1
455 85 806 351 1000 758 93 195 130 377 125 607 -6 210 -44 369 -130 545 -190
390 -547 663 -967 740 -100 18 -290 25 -396 13z m260 -904 c222 -131 445 -262
496 -292 51 -30 101 -66 110 -80 21 -32 19 -94 -4 -124 -9 -12 -106 -75 -213
-138 -108 -63 -332 -194 -497 -292 -318 -187 -337 -195 -393 -162 -57 34 -55
11 -56 643 0 368 3 595 10 614 14 43 71 80 112 73 18 -2 214 -111 435 -242z"/>
</g>
</svg>
